<svg width="512" height="512" viewBox="0 0 512 512" xmlns="http://www.w3.org/2000/svg">
  <!-- Background circle with gradient -->
  <defs>
    <linearGradient id="bgGradient" x1="0%" y1="0%" x2="100%" y2="100%">
      <stop offset="0%" style="stop-color:#4F46E5;stop-opacity:1" />
      <stop offset="100%" style="stop-color:#7C3AED;stop-opacity:1" />
    </linearGradient>
    <linearGradient id="checkGradient" x1="0%" y1="0%" x2="100%" y2="100%">
      <stop offset="0%" style="stop-color:#10B981;stop-opacity:1" />
      <stop offset="100%" style="stop-color:#059669;stop-opacity:1" />
    </linearGradient>
  </defs>

  <!-- Background -->
  <rect width="512" height="512" rx="100" fill="url(#bgGradient)"/>

  <!-- Checklist lines -->
  <rect x="140" y="140" width="232" height="32" rx="8" fill="white" opacity="0.9"/>
  <rect x="140" y="240" width="232" height="32" rx="8" fill="white" opacity="0.9"/>
  <rect x="140" y="340" width="232" height="32" rx="8" fill="white" opacity="0.9"/>

  <!-- Checkmarks -->
  <circle cx="100" cy="156" r="28" fill="url(#checkGradient)"/>
  <path d="M 90 156 L 96 164 L 110 146" stroke="white" stroke-width="6" fill="none" stroke-linecap="round" stroke-linejoin="round"/>

  <circle cx="100" cy="256" r="28" fill="url(#checkGradient)"/>
  <path d="M 90 256 L 96 264 L 110 246" stroke="white" stroke-width="6" fill="none" stroke-linecap="round" stroke-linejoin="round"/>

  <circle cx="100" cy="356" r="28" fill="white" opacity="0.3"/>

  <!-- Calendar icon overlay -->
  <rect x="320" y="320" width="140" height="140" rx="16" fill="white" opacity="0.95"/>
  <rect x="320" y="320" width="140" height="40" rx="16" fill="#EF4444"/>
  <rect x="340" y="305" width="20" height="30" rx="4" fill="#DC2626"/>
  <rect x="400" y="305" width="20" height="30" rx="4" fill="#DC2626"/>
  <circle cx="350" cy="390" r="8" fill="#4F46E5"/>
  <circle cx="380" cy="390" r="8" fill="#4F46E5"/>
  <circle cx="410" cy="390" r="8" fill="#4F46E5"/>
  <circle cx="350" cy="420" r="8" fill="#10B981"/>
  <circle cx="380" cy="420" r="8" fill="#4F46E5"/>
</svg>
